<svg width="20" height="20" viewBox="0 0 20 20" fill="none" xmlns="http://www.w3.org/2000/svg">
<path d="M11.4556 10.014L19.6753 1.83923C20.0694 1.44913 20.0694 0.817629 19.6753 0.428528C19.2822 0.0384312 18.6438 0.0384312 18.2507 0.428528L10.038 8.59634L1.74938 0.306788C1.3563 -0.0872888 0.717831 -0.0872888 0.324749 0.306788C-0.0683334 0.701861 -0.0683334 1.34132 0.324749 1.7354L8.60734 10.019L0.294812 18.2856C-0.0982706 18.6757 -0.0982706 19.3072 0.294812 19.6963C0.687894 20.0864 1.32636 20.0864 1.71944 19.6963L10.0249 11.4367L18.2806 19.6933C18.6736 20.0874 19.3121 20.0874 19.7052 19.6933C20.0983 19.2982 20.0983 18.6588 19.7052 18.2647L11.4556 10.014Z" fill="#0B2D54"/>
</svg>
